<mxfile host="app.diagrams.net" modified="2024-06-02T05:39:29.288Z" agent="Mozilla/5.0 (Windows NT 10.0; Win64; x64) AppleWebKit/537.36 (KHTML, like Gecko) Chrome/125.0.0.0 Safari/537.36" etag="H26u2J2h5CcwlhD8fq8f" version="24.4.13" type="device">
  <diagram id="tpV81O9h_MKFU0ULNxRY" name="Trang-1">
    <mxGraphModel dx="1834" dy="1184" grid="0" gridSize="10" guides="1" tooltips="1" connect="1" arrows="1" fold="1" page="0" pageScale="1" pageWidth="827" pageHeight="1169" math="0" shadow="0">
      <root>
        <mxCell id="0" />
        <mxCell id="1" parent="0" />
        <mxCell id="7AdhDxd1I7gbnPzGOzrh-1" value="Flow Chart 5.1.3" style="text;html=1;align=center;verticalAlign=middle;whiteSpace=wrap;rounded=0;fontSize=42;fontStyle=1" vertex="1" parent="1">
          <mxGeometry x="364" y="-209" width="360" height="120" as="geometry" />
        </mxCell>
        <mxCell id="7AdhDxd1I7gbnPzGOzrh-2" value="Start" style="ellipse;whiteSpace=wrap;html=1;fontStyle=1;fontSize=18;strokeWidth=2;fillColor=#60A917;strokeColor=#60A917;fontColor=#FFFFFF;" vertex="1" parent="1">
          <mxGeometry x="-55" y="-76" width="210" height="90" as="geometry" />
        </mxCell>
        <mxCell id="7AdhDxd1I7gbnPzGOzrh-3" value="Send string data to central MCU&lt;div&gt;through CAN&lt;/div&gt;" style="rounded=0;whiteSpace=wrap;html=1;fontStyle=1;fontSize=18;strokeWidth=2;fillColor=#8B4CA6;strokeColor=#8B4CA6;fontColor=#FFFFFF;" vertex="1" parent="1">
          <mxGeometry x="725" y="-76" width="210" height="90" as="geometry" />
        </mxCell>
        <mxCell id="7AdhDxd1I7gbnPzGOzrh-4" value="End" style="ellipse;whiteSpace=wrap;html=1;fontStyle=1;fontSize=18;strokeWidth=2;fillColor=#60A917;strokeColor=#60A917;fontColor=#FFFFFF;" vertex="1" parent="1">
          <mxGeometry x="985" y="-76" width="210" height="90" as="geometry" />
        </mxCell>
        <mxCell id="7AdhDxd1I7gbnPzGOzrh-5" value="Distance data&lt;div style=&quot;font-size: 18px;&quot;&gt;to String data&lt;/div&gt;" style="shape=parallelogram;perimeter=parallelogramPerimeter;whiteSpace=wrap;html=1;fixedSize=1;strokeWidth=2;fontStyle=1;fontSize=18;fillColor=#009999;strokeColor=#009999;fontColor=#FFFFFF;" vertex="1" parent="1">
          <mxGeometry x="455" y="-76" width="210" height="90" as="geometry" />
        </mxCell>
        <mxCell id="7AdhDxd1I7gbnPzGOzrh-6" value="" style="edgeStyle=orthogonalEdgeStyle;rounded=0;orthogonalLoop=1;jettySize=auto;html=1;" edge="1" parent="1" source="7AdhDxd1I7gbnPzGOzrh-7" target="7AdhDxd1I7gbnPzGOzrh-5">
          <mxGeometry relative="1" as="geometry" />
        </mxCell>
        <mxCell id="7AdhDxd1I7gbnPzGOzrh-7" value="&lt;span style=&quot;font-size: 18px; font-weight: 700;&quot;&gt;Sensor measure the distance&lt;/span&gt;&lt;div style=&quot;font-size: 18px; font-weight: 700;&quot;&gt;from objects&lt;/div&gt;" style="shape=hexagon;perimeter=hexagonPerimeter2;whiteSpace=wrap;html=1;fixedSize=1;strokeWidth=2;fillColor=#890103;fontColor=#FFFFFF;strokeColor=#890103;" vertex="1" parent="1">
          <mxGeometry x="205" y="-76" width="210" height="90" as="geometry" />
        </mxCell>
        <mxCell id="7AdhDxd1I7gbnPzGOzrh-8" value="" style="endArrow=classic;html=1;rounded=0;entryX=0;entryY=0.5;entryDx=0;entryDy=0;exitX=1;exitY=0.5;exitDx=0;exitDy=0;strokeWidth=2;" edge="1" parent="1" source="7AdhDxd1I7gbnPzGOzrh-5" target="7AdhDxd1I7gbnPzGOzrh-3">
          <mxGeometry width="50" height="50" relative="1" as="geometry">
            <mxPoint x="649" y="73" as="sourcePoint" />
            <mxPoint x="699" y="23" as="targetPoint" />
          </mxGeometry>
        </mxCell>
        <mxCell id="7AdhDxd1I7gbnPzGOzrh-9" value="" style="endArrow=classic;html=1;rounded=0;entryX=0;entryY=0.5;entryDx=0;entryDy=0;exitX=1;exitY=0.5;exitDx=0;exitDy=0;strokeWidth=2;" edge="1" parent="1" source="7AdhDxd1I7gbnPzGOzrh-2" target="7AdhDxd1I7gbnPzGOzrh-7">
          <mxGeometry width="50" height="50" relative="1" as="geometry">
            <mxPoint x="159" y="55" as="sourcePoint" />
            <mxPoint x="176" y="-3" as="targetPoint" />
          </mxGeometry>
        </mxCell>
        <mxCell id="7AdhDxd1I7gbnPzGOzrh-10" value="" style="endArrow=classic;html=1;rounded=0;entryX=0;entryY=0.5;entryDx=0;entryDy=0;exitX=1;exitY=0.5;exitDx=0;exitDy=0;strokeWidth=2;" edge="1" parent="1" source="7AdhDxd1I7gbnPzGOzrh-7" target="7AdhDxd1I7gbnPzGOzrh-5">
          <mxGeometry width="50" height="50" relative="1" as="geometry">
            <mxPoint x="392" y="64" as="sourcePoint" />
            <mxPoint x="442" y="14" as="targetPoint" />
          </mxGeometry>
        </mxCell>
        <mxCell id="7AdhDxd1I7gbnPzGOzrh-11" value="" style="endArrow=classic;html=1;rounded=0;entryX=0;entryY=0.5;entryDx=0;entryDy=0;exitX=1;exitY=0.5;exitDx=0;exitDy=0;strokeWidth=2;" edge="1" parent="1" source="7AdhDxd1I7gbnPzGOzrh-3" target="7AdhDxd1I7gbnPzGOzrh-4">
          <mxGeometry width="50" height="50" relative="1" as="geometry">
            <mxPoint x="745" y="90" as="sourcePoint" />
            <mxPoint x="795" y="40" as="targetPoint" />
          </mxGeometry>
        </mxCell>
        <mxCell id="7AdhDxd1I7gbnPzGOzrh-12" value="" style="group" vertex="1" connectable="0" parent="1">
          <mxGeometry x="869" y="46" width="332" height="144" as="geometry" />
        </mxCell>
        <mxCell id="7AdhDxd1I7gbnPzGOzrh-13" value="" style="rounded=0;whiteSpace=wrap;html=1;" vertex="1" parent="7AdhDxd1I7gbnPzGOzrh-12">
          <mxGeometry width="332" height="144" as="geometry" />
        </mxCell>
        <mxCell id="7AdhDxd1I7gbnPzGOzrh-14" value="" style="rounded=0;whiteSpace=wrap;html=1;fillColor=#8B4CA6;strokeColor=#8B4CA6;" vertex="1" parent="7AdhDxd1I7gbnPzGOzrh-12">
          <mxGeometry x="17" y="86" width="175" height="24" as="geometry" />
        </mxCell>
        <mxCell id="7AdhDxd1I7gbnPzGOzrh-15" value="" style="rounded=0;whiteSpace=wrap;html=1;fillColor=#009999;strokeColor=#009999;" vertex="1" parent="7AdhDxd1I7gbnPzGOzrh-12">
          <mxGeometry x="17" y="62" width="175" height="24" as="geometry" />
        </mxCell>
        <mxCell id="7AdhDxd1I7gbnPzGOzrh-16" value="" style="rounded=0;whiteSpace=wrap;html=1;fillColor=#60A917;strokeColor=#60A917;" vertex="1" parent="7AdhDxd1I7gbnPzGOzrh-12">
          <mxGeometry x="17" y="38" width="175" height="24" as="geometry" />
        </mxCell>
        <mxCell id="7AdhDxd1I7gbnPzGOzrh-17" value="Legend" style="text;html=1;align=center;verticalAlign=middle;whiteSpace=wrap;rounded=0;fontStyle=5;fontSize=19;" vertex="1" parent="7AdhDxd1I7gbnPzGOzrh-12">
          <mxGeometry x="74.5" y="2" width="60" height="30" as="geometry" />
        </mxCell>
        <mxCell id="7AdhDxd1I7gbnPzGOzrh-18" value="Start/ End Point" style="text;html=1;align=left;verticalAlign=middle;whiteSpace=wrap;rounded=0;fontStyle=1;fontSize=14;" vertex="1" parent="7AdhDxd1I7gbnPzGOzrh-12">
          <mxGeometry x="196" y="35" width="109" height="30" as="geometry" />
        </mxCell>
        <mxCell id="7AdhDxd1I7gbnPzGOzrh-19" value="Input/ Output" style="text;html=1;align=left;verticalAlign=middle;whiteSpace=wrap;rounded=0;fontStyle=1;fontSize=14;" vertex="1" parent="7AdhDxd1I7gbnPzGOzrh-12">
          <mxGeometry x="196" y="59" width="94" height="30" as="geometry" />
        </mxCell>
        <mxCell id="7AdhDxd1I7gbnPzGOzrh-20" value="Task" style="text;html=1;align=left;verticalAlign=middle;whiteSpace=wrap;rounded=0;fontStyle=1;fontSize=14;" vertex="1" parent="7AdhDxd1I7gbnPzGOzrh-12">
          <mxGeometry x="196" y="83" width="81" height="30" as="geometry" />
        </mxCell>
        <mxCell id="7AdhDxd1I7gbnPzGOzrh-21" value="" style="rounded=0;whiteSpace=wrap;html=1;fillColor=#890103;strokeColor=#8B4CA6;" vertex="1" parent="7AdhDxd1I7gbnPzGOzrh-12">
          <mxGeometry x="17" y="110" width="175" height="24" as="geometry" />
        </mxCell>
        <mxCell id="7AdhDxd1I7gbnPzGOzrh-22" value="Secondary Diagram" style="text;html=1;align=left;verticalAlign=middle;whiteSpace=wrap;rounded=0;fontStyle=1;fontSize=14;" vertex="1" parent="7AdhDxd1I7gbnPzGOzrh-12">
          <mxGeometry x="196" y="107" width="136" height="30" as="geometry" />
        </mxCell>
      </root>
    </mxGraphModel>
  </diagram>
</mxfile>
